<?xml version="1.0" encoding="utf-8"?>
<!-- Generator: Adobe Illustrator 27.0.1, SVG Export Plug-In . SVG Version: 6.00 Build 0)  -->
<svg version="1.1" xmlns="http://www.w3.org/2000/svg" xmlns:xlink="http://www.w3.org/1999/xlink" x="0px" y="0px"
	 viewBox="0 0 841.9 595.3" style="enable-background:new 0 0 841.9 595.3;" xml:space="preserve">
<style type="text/css">
	.st0{fill:#FFFFFF;stroke:#1D1D1B;stroke-miterlimit:10;}
	.st1{fill:#AFFF45;}
	.st2{fill:#FF00F0;}
	.st3{fill:#D65C5C;}
	.st4{fill:#1D1D1B;}
	.st5{fill:#CE0909;}
</style>
<g id="Calque_9">
	<g>
		<circle class="st0" cx="420.9" cy="297.6" r="213.6"/>
		<g>
			<path class="st1" d="M381.3,127.7c3.6,0,6.5-2.9,6.5-6.5c0-0.2,0-0.4,0-0.5c0.4,0.4,1,0.6,1.6,0.6c1.4,0,2.5-1.1,2.5-2.5
				s-1.1-2.5-2.5-2.5c-1.1,0-2.1,0.8-2.4,1.8c-1.1-2-3.2-3.4-5.7-3.4c-3.6,0-6.5,2.9-6.5,6.5S377.8,127.7,381.3,127.7z"/>
			<path class="st1" d="M373.5,124c-1.4,0-2.5,1.1-2.5,2.5s1.1,2.5,2.5,2.5s2.5-1.1,2.5-2.5S374.9,124,373.5,124z"/>
			<path class="st1" d="M374.8,116.4c0-1.4-1.1-2.5-2.5-2.5s-2.5,1.1-2.5,2.5s1.1,2.5,2.5,2.5S374.8,117.7,374.8,116.4z"/>
			<path class="st1" d="M380.6,114.4c1.4,0,2.5-1.1,2.5-2.5s-1.1-2.5-2.5-2.5s-2.5,1.1-2.5,2.5S379.2,114.4,380.6,114.4z"/>
			<path class="st1" d="M391.9,115.2c1.4,0,2.5-1.1,2.5-2.5c0-1.4-1.1-2.5-2.5-2.5s-2.5,1.1-2.5,2.5
				C389.4,114.1,390.5,115.2,391.9,115.2z"/>
			<path class="st1" d="M390.3,127.7c0-1.4-1.1-2.5-2.5-2.5s-2.5,1.1-2.5,2.5s1.1,2.5,2.5,2.5S390.3,129,390.3,127.7z"/>
			<path class="st1" d="M497.7,134.5c0-0.2,0-0.4,0-0.5c0.4,0.4,1,0.6,1.6,0.6c1.4,0,2.5-1.1,2.5-2.5s-1.1-2.5-2.5-2.5
				c-1.1,0-2.1,0.8-2.4,1.8c-1.1-2-3.2-3.4-5.7-3.4c-3.6,0-6.5,2.9-6.5,6.5c0,3.6,2.9,6.5,6.5,6.5S497.7,138.1,497.7,134.5z"/>
			<path class="st1" d="M483.5,137.3c-1.4,0-2.5,1.1-2.5,2.5s1.1,2.5,2.5,2.5s2.5-1.1,2.5-2.5S484.8,137.3,483.5,137.3z"/>
			<path class="st1" d="M484.8,129.7c0-1.4-1.1-2.5-2.5-2.5s-2.5,1.1-2.5,2.5s1.1,2.5,2.5,2.5S484.8,131.1,484.8,129.7z"/>
			<path class="st1" d="M490.5,127.7c1.4,0,2.5-1.1,2.5-2.5s-1.1-2.5-2.5-2.5s-2.5,1.1-2.5,2.5S489.1,127.7,490.5,127.7z"/>
			<path class="st1" d="M501.8,128.5c1.4,0,2.5-1.1,2.5-2.5s-1.1-2.5-2.5-2.5s-2.5,1.1-2.5,2.5S500.4,128.5,501.8,128.5z"/>
			<path class="st1" d="M500.2,141c0-1.4-1.1-2.5-2.5-2.5s-2.5,1.1-2.5,2.5s1.1,2.5,2.5,2.5S500.2,142.4,500.2,141z"/>
			<path class="st1" d="M540.1,165.7c-1.4,0-2.5,1.1-2.5,2.5s1.1,2.5,2.5,2.5s2.5-1.1,2.5-2.5S541.5,165.7,540.1,165.7z"/>
			<path class="st1" d="M541.4,158.1c0-1.4-1.1-2.5-2.5-2.5s-2.5,1.1-2.5,2.5s1.1,2.5,2.5,2.5S541.4,159.5,541.4,158.1z"/>
			<path class="st1" d="M547.1,156.1c1.4,0,2.5-1.1,2.5-2.5s-1.1-2.5-2.5-2.5s-2.5,1.1-2.5,2.5S545.8,156.1,547.1,156.1z"/>
			<path class="st1" d="M556,158.1c-1.1,0-2.1,0.8-2.4,1.8c-1.1-2-3.2-3.4-5.7-3.4c-3.6,0-6.5,2.9-6.5,6.5s2.9,6.5,6.5,6.5
				s6.5-2.9,6.5-6.5c0-0.2,0-0.4,0-0.5c0.4,0.4,1,0.6,1.6,0.6c1.4,0,2.5-1.1,2.5-2.5S557.3,158.1,556,158.1z"/>
			<path class="st1" d="M560.9,154.5c0-1.4-1.1-2.5-2.5-2.5s-2.5,1.1-2.5,2.5s1.1,2.5,2.5,2.5S560.9,155.8,560.9,154.5z"/>
			<path class="st1" d="M554.4,167c-1.4,0-2.5,1.1-2.5,2.5c0,1.4,1.1,2.5,2.5,2.5s2.5-1.1,2.5-2.5C556.8,168.1,555.7,167,554.4,167z
				"/>
			<path class="st1" d="M601.1,263.8c-1.4,0-2.5,1.1-2.5,2.5s1.1,2.5,2.5,2.5s2.5-1.1,2.5-2.5S602.5,263.8,601.1,263.8z"/>
			<path class="st1" d="M599.9,253.7c-1.4,0-2.5,1.1-2.5,2.5s1.1,2.5,2.5,2.5s2.5-1.1,2.5-2.5S601.3,253.7,599.9,253.7z"/>
			<path class="st1" d="M608.1,254.2c1.4,0,2.5-1.1,2.5-2.5c0-1.4-1.1-2.5-2.5-2.5s-2.5,1.1-2.5,2.5
				C605.7,253.1,606.8,254.2,608.1,254.2z"/>
			<path class="st1" d="M617,256.2c-1.1,0-2.1,0.8-2.4,1.8c-1.1-2-3.2-3.4-5.7-3.4c-3.6,0-6.5,2.9-6.5,6.5s2.9,6.5,6.5,6.5
				s6.5-2.9,6.5-6.5c0-0.2,0-0.4,0-0.5c0.4,0.4,1,0.6,1.6,0.6c1.4,0,2.5-1.1,2.5-2.5S618.3,256.2,617,256.2z"/>
			<path class="st1" d="M619.4,250.1c-1.4,0-2.5,1.1-2.5,2.5s1.1,2.5,2.5,2.5s2.5-1.1,2.5-2.5S620.8,250.1,619.4,250.1z"/>
			<path class="st1" d="M617.8,267.5c0-1.4-1.1-2.5-2.5-2.5s-2.5,1.1-2.5,2.5s1.1,2.5,2.5,2.5S617.8,268.9,617.8,267.5z"/>
			<path class="st1" d="M324.4,139.5c3.6,0,6.5-2.9,6.5-6.5c0-0.2,0-0.4,0-0.5c0.4,0.4,1,0.6,1.6,0.6c1.4,0,2.5-1.1,2.5-2.5
				s-1.1-2.5-2.5-2.5c-1.1,0-2.1,0.8-2.4,1.8c-1.1-2-3.2-3.4-5.7-3.4c-3.6,0-6.5,2.9-6.5,6.5C318,136.6,320.9,139.5,324.4,139.5z"/>
			<path class="st1" d="M314.2,138.3c0,1.4,1.1,2.5,2.5,2.5s2.5-1.1,2.5-2.5s-1.1-2.5-2.5-2.5S314.2,137,314.2,138.3z"/>
			<path class="st1" d="M315.5,130.7c1.4,0,2.5-1.1,2.5-2.5s-1.1-2.5-2.5-2.5s-2.5,1.1-2.5,2.5S314.1,130.7,315.5,130.7z"/>
			<path class="st1" d="M323.7,126.2c1.4,0,2.5-1.1,2.5-2.5c0-1.4-1.1-2.5-2.5-2.5s-2.5,1.1-2.5,2.5
				C321.2,125.1,322.3,126.2,323.7,126.2z"/>
			<path class="st1" d="M335,122.1c-1.4,0-2.5,1.1-2.5,2.5s1.1,2.5,2.5,2.5s2.5-1.1,2.5-2.5S336.4,122.1,335,122.1z"/>
			<path class="st1" d="M328.5,139.5c0,1.4,1.1,2.5,2.5,2.5s2.5-1.1,2.5-2.5s-1.1-2.5-2.5-2.5S328.5,138.2,328.5,139.5z"/>
			<path class="st1" d="M282.5,187.2c-1.4,0-2.5,1.1-2.5,2.5s1.1,2.5,2.5,2.5s2.5-1.1,2.5-2.5S283.9,187.2,282.5,187.2z"/>
			<path class="st1" d="M281.3,182c1.4,0,2.5-1.1,2.5-2.5s-1.1-2.5-2.5-2.5s-2.5,1.1-2.5,2.5S280,182,281.3,182z"/>
			<path class="st1" d="M289.5,177.6c1.4,0,2.5-1.1,2.5-2.5s-1.1-2.5-2.5-2.5s-2.5,1.1-2.5,2.5S288.2,177.6,289.5,177.6z"/>
			<path class="st1" d="M298.4,179.6c-1.1,0-2.1,0.8-2.4,1.8c-1.1-2-3.2-3.4-5.7-3.4c-3.6,0-6.5,2.9-6.5,6.5c0,3.6,2.9,6.5,6.5,6.5
				s6.5-2.9,6.5-6.5c0-0.2,0-0.4,0-0.5c0.4,0.4,1,0.6,1.6,0.6c1.4,0,2.5-1.1,2.5-2.5C300.9,180.7,299.7,179.6,298.4,179.6z"/>
			<path class="st1" d="M300.9,173.5c-1.4,0-2.5,1.1-2.5,2.5s1.1,2.5,2.5,2.5s2.5-1.1,2.5-2.5S302.2,173.5,300.9,173.5z"/>
			<path class="st1" d="M296.8,188.4c-1.4,0-2.5,1.1-2.5,2.5s1.1,2.5,2.5,2.5s2.5-1.1,2.5-2.5S298.1,188.4,296.8,188.4z"/>
			<path class="st1" d="M245.5,218.9c3.6,0,6.5-2.9,6.5-6.5c0-0.2,0-0.4,0-0.5c0.4,0.4,1,0.6,1.6,0.6c1.4,0,2.5-1.1,2.5-2.5
				s-1.1-2.5-2.5-2.5c-1.1,0-2.1,0.8-2.4,1.8c-1.1-2-3.2-3.4-5.7-3.4c-3.6,0-6.5,2.9-6.5,6.5S242,218.9,245.5,218.9z"/>
			<path class="st1" d="M240.2,217.7c0-1.4-1.1-2.5-2.5-2.5c-1.4,0-2.5,1.1-2.5,2.5s1.1,2.5,2.5,2.5
				C239.1,220.2,240.2,219.1,240.2,217.7z"/>
			<path class="st1" d="M236.6,210.1c1.4,0,2.5-1.1,2.5-2.5c0-1.4-1.1-2.5-2.5-2.5s-2.5,1.1-2.5,2.5
				C234.1,209,235.2,210.1,236.6,210.1z"/>
			<path class="st1" d="M244.8,205.6c1.4,0,2.5-1.1,2.5-2.5c0-1.4-1.1-2.5-2.5-2.5s-2.5,1.1-2.5,2.5
				C242.3,204.5,243.4,205.6,244.8,205.6z"/>
			<path class="st1" d="M256.1,206.4c1.4,0,2.5-1.1,2.5-2.5s-1.1-2.5-2.5-2.5s-2.5,1.1-2.5,2.5S254.7,206.4,256.1,206.4z"/>
			<path class="st1" d="M252,221.4c1.4,0,2.5-1.1,2.5-2.5s-1.1-2.5-2.5-2.5s-2.5,1.1-2.5,2.5S250.6,221.4,252,221.4z"/>
			<path class="st1" d="M241,282.5c1.4,0,2.5-1.1,2.5-2.5s-1.1-2.5-2.5-2.5s-2.5,1.1-2.5,2.5S239.6,282.5,241,282.5z"/>
			<path class="st1" d="M239.8,272.4c1.4,0,2.5-1.1,2.5-2.5s-1.1-2.5-2.5-2.5s-2.5,1.1-2.5,2.5S238.4,272.4,239.8,272.4z"/>
			<path class="st1" d="M245.5,265.5c0,1.4,1.1,2.5,2.5,2.5c1.4,0,2.5-1.1,2.5-2.5s-1.1-2.5-2.5-2.5
				C246.6,263,245.5,264.1,245.5,265.5z"/>
			<path class="st1" d="M259.3,272.4c0-1.4-1.1-2.5-2.5-2.5c-1.1,0-2.1,0.8-2.4,1.8c-1.1-2-3.2-3.4-5.7-3.4c-3.6,0-6.5,2.9-6.5,6.5
				s2.9,6.5,6.5,6.5c3.6,0,6.5-2.9,6.5-6.5c0-0.2,0-0.4,0-0.5c0.4,0.4,1,0.6,1.6,0.6C258.2,274.8,259.3,273.7,259.3,272.4z"/>
			<path class="st1" d="M256.8,266.2c0,1.4,1.1,2.5,2.5,2.5s2.5-1.1,2.5-2.5s-1.1-2.5-2.5-2.5S256.8,264.9,256.8,266.2z"/>
			<path class="st1" d="M257.7,281.2c0-1.4-1.1-2.5-2.5-2.5s-2.5,1.1-2.5,2.5s1.1,2.5,2.5,2.5S257.7,282.6,257.7,281.2z"/>
			<path class="st1" d="M243.4,325.2c0-0.2,0-0.4,0-0.5c0.4,0.4,1,0.6,1.6,0.6c1.4,0,2.5-1.1,2.5-2.5s-1.1-2.5-2.5-2.5
				c-1.1,0-2.1,0.8-2.4,1.8c-1.1-2-3.2-3.4-5.7-3.4c-3.6,0-6.5,2.9-6.5,6.5s2.9,6.5,6.5,6.5S243.4,328.8,243.4,325.2z"/>
			<path class="st1" d="M229.1,328c-1.4,0-2.5,1.1-2.5,2.5s1.1,2.5,2.5,2.5s2.5-1.1,2.5-2.5S230.5,328,229.1,328z"/>
			<path class="st1" d="M230.5,320.4c0-1.4-1.1-2.5-2.5-2.5c-1.4,0-2.5,1.1-2.5,2.5s1.1,2.5,2.5,2.5
				C229.3,322.9,230.5,321.8,230.5,320.4z"/>
			<path class="st1" d="M236.2,318.4c1.4,0,2.5-1.1,2.5-2.5s-1.1-2.5-2.5-2.5c-1.4,0-2.5,1.1-2.5,2.5S234.8,318.4,236.2,318.4z"/>
			<path class="st1" d="M245,316.8c0,1.4,1.1,2.5,2.5,2.5c1.4,0,2.5-1.1,2.5-2.5s-1.1-2.5-2.5-2.5C246.1,314.3,245,315.4,245,316.8z
				"/>
			<path class="st1" d="M245.9,331.7c0-1.4-1.1-2.5-2.5-2.5c-1.4,0-2.5,1.1-2.5,2.5s1.1,2.5,2.5,2.5
				C244.8,334.2,245.9,333.1,245.9,331.7z"/>
			<path class="st1" d="M246.6,381c-1.4,0-2.5,1.1-2.5,2.5s1.1,2.5,2.5,2.5s2.5-1.1,2.5-2.5S248,381,246.6,381z"/>
			<path class="st1" d="M247.9,373.4c0-1.4-1.1-2.5-2.5-2.5s-2.5,1.1-2.5,2.5s1.1,2.5,2.5,2.5S247.9,374.7,247.9,373.4z"/>
			<path class="st1" d="M251.2,369c0,1.4,1.1,2.5,2.5,2.5s2.5-1.1,2.5-2.5s-1.1-2.5-2.5-2.5S251.2,367.6,251.2,369z"/>
			<path class="st1" d="M262.5,373.4c-1.1,0-2.1,0.8-2.4,1.8c-1.1-2-3.2-3.4-5.7-3.4c-3.6,0-6.5,2.9-6.5,6.5s2.9,6.5,6.5,6.5
				s6.5-2.9,6.5-6.5c0-0.2,0-0.4,0-0.5c0.4,0.4,1,0.6,1.6,0.6c1.4,0,2.5-1.1,2.5-2.5S263.9,373.4,262.5,373.4z"/>
			<path class="st1" d="M265,367.3c-1.4,0-2.5,1.1-2.5,2.5s1.1,2.5,2.5,2.5s2.5-1.1,2.5-2.5S266.3,367.3,265,367.3z"/>
			<path class="st1" d="M260.9,382.2c-1.4,0-2.5,1.1-2.5,2.5s1.1,2.5,2.5,2.5s2.5-1.1,2.5-2.5S262.3,382.2,260.9,382.2z"/>
			<path class="st1" d="M276.4,414c-1.4,0-2.5,1.1-2.5,2.5s1.1,2.5,2.5,2.5s2.5-1.1,2.5-2.5S277.7,414,276.4,414z"/>
			<path class="st1" d="M277.7,406.3c0-1.4-1.1-2.5-2.5-2.5s-2.5,1.1-2.5,2.5s1.1,2.5,2.5,2.5S277.7,407.7,277.7,406.3z"/>
			<path class="st1" d="M280.9,401.9c0,1.4,1.1,2.5,2.5,2.5s2.5-1.1,2.5-2.5s-1.1-2.5-2.5-2.5S280.9,400.5,280.9,401.9z"/>
			<path class="st1" d="M292.2,406.3c-1.1,0-2.1,0.8-2.4,1.8c-1.1-2-3.2-3.4-5.7-3.4c-3.6,0-6.5,2.9-6.5,6.5s2.9,6.5,6.5,6.5
				s6.5-2.9,6.5-6.5c0-0.2,0-0.4,0-0.5c0.4,0.4,1,0.6,1.6,0.6c1.4,0,2.5-1.1,2.5-2.5S293.6,406.3,292.2,406.3z"/>
			<path class="st1" d="M294.7,400.2c-1.4,0-2.5,1.1-2.5,2.5s1.1,2.5,2.5,2.5s2.5-1.1,2.5-2.5S296.1,400.2,294.7,400.2z"/>
			<path class="st1" d="M290.7,415.2c-1.4,0-2.5,1.1-2.5,2.5s1.1,2.5,2.5,2.5s2.5-1.1,2.5-2.5S292,415.2,290.7,415.2z"/>
			<path class="st1" d="M315.8,467.8c-1.4,0-2.5,1.1-2.5,2.5s1.1,2.5,2.5,2.5s2.5-1.1,2.5-2.5S317.2,467.8,315.8,467.8z"/>
			<path class="st1" d="M317.2,460.2c0-1.4-1.1-2.5-2.5-2.5s-2.5,1.1-2.5,2.5s1.1,2.5,2.5,2.5S317.2,461.5,317.2,460.2z"/>
			<path class="st1" d="M320.4,455.7c0,1.4,1.1,2.5,2.5,2.5s2.5-1.1,2.5-2.5s-1.1-2.5-2.5-2.5S320.4,454.4,320.4,455.7z"/>
			<path class="st1" d="M331.7,460.2c-1.1,0-2.1,0.8-2.4,1.8c-1.1-2-3.2-3.4-5.7-3.4c-3.6,0-6.5,2.9-6.5,6.5s2.9,6.5,6.5,6.5
				s6.5-2.9,6.5-6.5c0-0.2,0-0.4,0-0.5c0.4,0.4,1,0.6,1.6,0.6c1.4,0,2.5-1.1,2.5-2.5S333.1,460.2,331.7,460.2z"/>
			<path class="st1" d="M334.2,454.1c-1.4,0-2.5,1.1-2.5,2.5s1.1,2.5,2.5,2.5s2.5-1.1,2.5-2.5S335.6,454.1,334.2,454.1z"/>
			<path class="st1" d="M330.1,469c-1.4,0-2.5,1.1-2.5,2.5s1.1,2.5,2.5,2.5s2.5-1.1,2.5-2.5S331.5,469,330.1,469z"/>
			<path class="st1" d="M379.2,479.9c-1.4,0-2.5,1.1-2.5,2.5s1.1,2.5,2.5,2.5s2.5-1.1,2.5-2.5S380.6,479.9,379.2,479.9z"/>
			<path class="st1" d="M380.5,472.3c0-1.4-1.1-2.5-2.5-2.5s-2.5,1.1-2.5,2.5s1.1,2.5,2.5,2.5S380.5,473.6,380.5,472.3z"/>
			<path class="st1" d="M383.8,467.8c0,1.4,1.1,2.5,2.5,2.5s2.5-1.1,2.5-2.5s-1.1-2.5-2.5-2.5S383.8,466.5,383.8,467.8z"/>
			<path class="st1" d="M395.1,472.3c-1.1,0-2.1,0.8-2.4,1.8c-1.1-2-3.2-3.4-5.7-3.4c-3.6,0-6.5,2.9-6.5,6.5s2.9,6.5,6.5,6.5
				s6.5-2.9,6.5-6.5c0-0.2,0-0.4,0-0.5c0.4,0.4,1,0.6,1.6,0.6c1.4,0,2.5-1.1,2.5-2.5S396.5,472.3,395.1,472.3z"/>
			<path class="st1" d="M397.6,466.2c-1.4,0-2.5,1.1-2.5,2.5s1.1,2.5,2.5,2.5s2.5-1.1,2.5-2.5S398.9,466.2,397.6,466.2z"/>
			<path class="st1" d="M393.5,481.1c-1.4,0-2.5,1.1-2.5,2.5s1.1,2.5,2.5,2.5s2.5-1.1,2.5-2.5S394.9,481.1,393.5,481.1z"/>
			<path class="st1" d="M442.7,481.3c-1.4,0-2.5,1.1-2.5,2.5s1.1,2.5,2.5,2.5s2.5-1.1,2.5-2.5S444,481.3,442.7,481.3z"/>
			<path class="st1" d="M444,473.7c0-1.4-1.1-2.5-2.5-2.5s-2.5,1.1-2.5,2.5s1.1,2.5,2.5,2.5S444,475,444,473.7z"/>
			<path class="st1" d="M447.2,469.2c0,1.4,1.1,2.5,2.5,2.5s2.5-1.1,2.5-2.5s-1.1-2.5-2.5-2.5S447.2,467.9,447.2,469.2z"/>
			<path class="st1" d="M458.5,473.7c-1.1,0-2.1,0.8-2.4,1.8c-1.1-2-3.2-3.4-5.7-3.4c-3.6,0-6.5,2.9-6.5,6.5s2.9,6.5,6.5,6.5
				s6.5-2.9,6.5-6.5c0-0.2,0-0.3,0-0.5c0.4,0.4,1,0.6,1.6,0.6c1.4,0,2.5-1.1,2.5-2.5S459.9,473.7,458.5,473.7z"/>
			<path class="st1" d="M461,467.5c-1.4,0-2.5,1.1-2.5,2.5s1.1,2.5,2.5,2.5s2.5-1.1,2.5-2.5S462.4,467.5,461,467.5z"/>
			<path class="st1" d="M457,482.5c-1.4,0-2.5,1.1-2.5,2.5s1.1,2.5,2.5,2.5s2.5-1.1,2.5-2.5S458.3,482.5,457,482.5z"/>
			<path class="st1" d="M502.9,456.7c-1.4,0-2.5,1.1-2.5,2.5s1.1,2.5,2.5,2.5s2.5-1.1,2.5-2.5S504.3,456.7,502.9,456.7z"/>
			<path class="st1" d="M504.2,449.1c0-1.4-1.1-2.5-2.5-2.5s-2.5,1.1-2.5,2.5s1.1,2.5,2.5,2.5S504.2,450.4,504.2,449.1z"/>
			<path class="st1" d="M510,447.1c1.4,0,2.5-1.1,2.5-2.5s-1.1-2.5-2.5-2.5s-2.5,1.1-2.5,2.5S508.6,447.1,510,447.1z"/>
			<path class="st1" d="M518.8,449.1c-1.1,0-2.1,0.8-2.4,1.8c-1.1-2-3.2-3.4-5.7-3.4c-3.6,0-6.5,2.9-6.5,6.5s2.9,6.5,6.5,6.5
				s6.5-2.9,6.5-6.5c0-0.2,0-0.4,0-0.5c0.4,0.4,1,0.6,1.6,0.6c1.4,0,2.5-1.1,2.5-2.5S520.2,449.1,518.8,449.1z"/>
			<path class="st1" d="M521.3,443c-1.4,0-2.5,1.1-2.5,2.5s1.1,2.5,2.5,2.5s2.5-1.1,2.5-2.5S522.7,443,521.3,443z"/>
			<path class="st1" d="M517.2,457.9c-1.4,0-2.5,1.1-2.5,2.5s1.1,2.5,2.5,2.5s2.5-1.1,2.5-2.5S518.6,457.9,517.2,457.9z"/>
			<path class="st1" d="M562.5,421.4c-1.4,0-2.5,1.1-2.5,2.5s1.1,2.5,2.5,2.5s2.5-1.1,2.5-2.5S563.9,421.4,562.5,421.4z"/>
			<path class="st1" d="M563.8,413.8c0-1.4-1.1-2.5-2.5-2.5s-2.5,1.1-2.5,2.5s1.1,2.5,2.5,2.5S563.8,415.2,563.8,413.8z"/>
			<path class="st1" d="M569.5,411.8c1.4,0,2.5-1.1,2.5-2.5s-1.1-2.5-2.5-2.5s-2.5,1.1-2.5,2.5S568.2,411.8,569.5,411.8z"/>
			<path class="st1" d="M578.4,413.8c-1.1,0-2.1,0.8-2.4,1.8c-1.1-2-3.2-3.4-5.7-3.4c-3.6,0-6.5,2.9-6.5,6.5s2.9,6.5,6.5,6.5
				s6.5-2.9,6.5-6.5c0-0.2,0-0.4,0-0.5c0.4,0.4,1,0.6,1.6,0.6c1.4,0,2.5-1.1,2.5-2.5S579.8,413.8,578.4,413.8z"/>
			<path class="st1" d="M580.9,407.7c-1.4,0-2.5,1.1-2.5,2.5s1.1,2.5,2.5,2.5s2.5-1.1,2.5-2.5S582.2,407.7,580.9,407.7z"/>
			<path class="st1" d="M576.8,422.7c-1.4,0-2.5,1.1-2.5,2.5s1.1,2.5,2.5,2.5s2.5-1.1,2.5-2.5S578.2,422.7,576.8,422.7z"/>
			<path class="st1" d="M582,373.9c-1.4,0-2.5,1.1-2.5,2.5s1.1,2.5,2.5,2.5s2.5-1.1,2.5-2.5S583.4,373.9,582,373.9z"/>
			<path class="st1" d="M580.9,368.8c1.4,0,2.5-1.1,2.5-2.5s-1.1-2.5-2.5-2.5s-2.5,1.1-2.5,2.5S579.5,368.8,580.9,368.8z"/>
			<path class="st1" d="M589.1,364.3c1.4,0,2.5-1.1,2.5-2.5s-1.1-2.5-2.5-2.5s-2.5,1.1-2.5,2.5S587.7,364.3,589.1,364.3z"/>
			<path class="st1" d="M597.9,366.3c-1.1,0-2.1,0.8-2.4,1.8c-1.1-2-3.2-3.4-5.7-3.4c-3.6,0-6.5,2.9-6.5,6.5s2.9,6.5,6.5,6.5
				s6.5-2.9,6.5-6.5c0-0.2,0-0.4,0-0.5c0.4,0.4,1,0.6,1.6,0.6c1.4,0,2.5-1.1,2.5-2.5S599.3,366.3,597.9,366.3z"/>
			<path class="st1" d="M600.4,360.2c-1.4,0-2.5,1.1-2.5,2.5s1.1,2.5,2.5,2.5s2.5-1.1,2.5-2.5S601.7,360.2,600.4,360.2z"/>
			<path class="st1" d="M596.3,375.2c-1.4,0-2.5,1.1-2.5,2.5s1.1,2.5,2.5,2.5s2.5-1.1,2.5-2.5S597.7,375.2,596.3,375.2z"/>
			<path class="st1" d="M595.4,315.5c0,1.4,1.1,2.5,2.5,2.5s2.5-1.1,2.5-2.5s-1.1-2.5-2.5-2.5S595.4,314.2,595.4,315.5z"/>
			<path class="st1" d="M596.7,303c-1.4,0-2.5,1.1-2.5,2.5s1.1,2.5,2.5,2.5s2.5-1.1,2.5-2.5S598.1,303,596.7,303z"/>
			<path class="st1" d="M604.9,303.5c1.4,0,2.5-1.1,2.5-2.5s-1.1-2.5-2.5-2.5s-2.5,1.1-2.5,2.5S603.5,303.5,604.9,303.5z"/>
			<path class="st1" d="M613.8,305.4c-1.1,0-2.1,0.8-2.4,1.8c-1.1-2-3.2-3.4-5.7-3.4c-3.6,0-6.5,2.9-6.5,6.5s2.9,6.5,6.5,6.5
				s6.5-2.9,6.5-6.5c0-0.2,0-0.4,0-0.5c0.4,0.4,1,0.6,1.6,0.6c1.4,0,2.5-1.1,2.5-2.5S615.1,305.4,613.8,305.4z"/>
			<path class="st1" d="M616.2,299.3c-1.4,0-2.5,1.1-2.5,2.5s1.1,2.5,2.5,2.5s2.5-1.1,2.5-2.5S617.6,299.3,616.2,299.3z"/>
			<path class="st1" d="M612.2,314.3c-1.4,0-2.5,1.1-2.5,2.5s1.1,2.5,2.5,2.5s2.5-1.1,2.5-2.5S613.5,314.3,612.2,314.3z"/>
			<path class="st1" d="M593,211.8c3.6,0,6.5-2.9,6.5-6.5c0-0.2,0-0.4,0-0.5c0.4,0.4,1,0.6,1.6,0.6c1.4,0,2.5-1.1,2.5-2.5
				s-1.1-2.5-2.5-2.5c-1.1,0-2.1,0.8-2.4,1.8c-1.1-2-3.2-3.4-5.7-3.4c-3.6,0-6.5,2.9-6.5,6.5S589.5,211.8,593,211.8z"/>
			<path class="st1" d="M585.2,208.2c-1.4,0-2.5,1.1-2.5,2.5s1.1,2.5,2.5,2.5s2.5-1.1,2.5-2.5S586.6,208.2,585.2,208.2z"/>
			<path class="st1" d="M584.1,203c1.4,0,2.5-1.1,2.5-2.5s-1.1-2.5-2.5-2.5s-2.5,1.1-2.5,2.5S582.7,203,584.1,203z"/>
			<path class="st1" d="M592.3,198.6c1.4,0,2.5-1.1,2.5-2.5s-1.1-2.5-2.5-2.5s-2.5,1.1-2.5,2.5S590.9,198.6,592.3,198.6z"/>
			<path class="st1" d="M603.6,199.4c1.4,0,2.5-1.1,2.5-2.5s-1.1-2.5-2.5-2.5s-2.5,1.1-2.5,2.5S602.2,199.4,603.6,199.4z"/>
			<path class="st1" d="M599.5,214.3c1.4,0,2.5-1.1,2.5-2.5s-1.1-2.5-2.5-2.5s-2.5,1.1-2.5,2.5S598.2,214.3,599.5,214.3z"/>
			<path class="st1" d="M444.4,124.2c3.6,0,6.5-2.9,6.5-6.5c0-0.2,0-0.4,0-0.5c0.4,0.4,1,0.6,1.6,0.6c1.4,0,2.5-1.1,2.5-2.5
				s-1.1-2.5-2.5-2.5c-1.1,0-2.1,0.8-2.4,1.8c-1.1-2-3.2-3.4-5.7-3.4c-3.6,0-6.5,2.9-6.5,6.5S440.8,124.2,444.4,124.2z"/>
			<path class="st1" d="M436.6,120.5c-1.4,0-2.5,1.1-2.5,2.5s1.1,2.5,2.5,2.5s2.5-1.1,2.5-2.5S437.9,120.5,436.6,120.5z"/>
			<path class="st1" d="M437.9,112.9c0-1.4-1.1-2.5-2.5-2.5s-2.5,1.1-2.5,2.5c0,1.4,1.1,2.5,2.5,2.5S437.9,114.3,437.9,112.9z"/>
			<path class="st1" d="M443.6,111c1.4,0,2.5-1.1,2.5-2.5c0-1.4-1.1-2.5-2.5-2.5s-2.5,1.1-2.5,2.5C441.1,109.8,442.2,111,443.6,111z
				"/>
			<path class="st1" d="M454.9,111.7c1.4,0,2.5-1.1,2.5-2.5s-1.1-2.5-2.5-2.5s-2.5,1.1-2.5,2.5S453.5,111.7,454.9,111.7z"/>
			<path class="st1" d="M453.3,124.2c0-1.4-1.1-2.5-2.5-2.5s-2.5,1.1-2.5,2.5s1.1,2.5,2.5,2.5S453.3,125.6,453.3,124.2z"/>
		</g>
	</g>
</g>
<g id="Calque_10">
	<g>
		<circle class="st0" cx="420.9" cy="297.6" r="142.2"/>
		<g>
			<path class="st2" d="M444.7,182.8c0-0.2,0-0.4,0-0.5c0.4,0.4,1,0.6,1.6,0.6c1.4,0,2.5-1.1,2.5-2.5s-1.1-2.5-2.5-2.5
				c-1.1,0-2.1,0.8-2.4,1.8c-1.1-2-3.2-3.4-5.7-3.4c-3.6,0-6.5,2.9-6.5,6.5c0,3.6,2.9,6.5,6.5,6.5S444.7,186.4,444.7,182.8z"/>
			<path class="st2" d="M430.5,185.6c-1.4,0-2.5,1.1-2.5,2.5s1.1,2.5,2.5,2.5s2.5-1.1,2.5-2.5S431.8,185.6,430.5,185.6z"/>
			<path class="st2" d="M431.8,178c0-1.4-1.1-2.5-2.5-2.5s-2.5,1.1-2.5,2.5s1.1,2.5,2.5,2.5S431.8,179.4,431.8,178z"/>
			<path class="st2" d="M437.5,176c1.4,0,2.5-1.1,2.5-2.5s-1.1-2.5-2.5-2.5s-2.5,1.1-2.5,2.5S436.1,176,437.5,176z"/>
			<path class="st2" d="M448.8,176.8c1.4,0,2.5-1.1,2.5-2.5c0-1.4-1.1-2.5-2.5-2.5s-2.5,1.1-2.5,2.5
				C446.3,175.7,447.4,176.8,448.8,176.8z"/>
			<path class="st2" d="M447.2,189.3c0-1.4-1.1-2.5-2.5-2.5s-2.5,1.1-2.5,2.5s1.1,2.5,2.5,2.5S447.2,190.7,447.2,189.3z"/>
			<path class="st2" d="M496.8,215.9c0-0.2,0-0.4,0-0.5c0.4,0.4,1,0.6,1.6,0.6c1.4,0,2.5-1.1,2.5-2.5s-1.1-2.5-2.5-2.5
				c-1.1,0-2.1,0.8-2.4,1.8c-1.1-2-3.2-3.4-5.7-3.4c-3.6,0-6.5,2.9-6.5,6.5c0,3.6,2.9,6.5,6.5,6.5S496.8,219.5,496.8,215.9z"/>
			<path class="st2" d="M482.5,218.7c-1.4,0-2.5,1.1-2.5,2.5s1.1,2.5,2.5,2.5s2.5-1.1,2.5-2.5S483.9,218.7,482.5,218.7z"/>
			<path class="st2" d="M483.9,211c0-1.4-1.1-2.5-2.5-2.5s-2.5,1.1-2.5,2.5c0,1.4,1.1,2.5,2.5,2.5S483.9,212.4,483.9,211z"/>
			<path class="st2" d="M489.6,209.1c1.4,0,2.5-1.1,2.5-2.5s-1.1-2.5-2.5-2.5s-2.5,1.1-2.5,2.5S488.2,209.1,489.6,209.1z"/>
			<path class="st2" d="M500.9,209.9c1.4,0,2.5-1.1,2.5-2.5c0-1.4-1.1-2.5-2.5-2.5s-2.5,1.1-2.5,2.5
				C498.4,208.8,499.5,209.9,500.9,209.9z"/>
			<path class="st2" d="M494.4,222.4c0,1.4,1.1,2.5,2.5,2.5s2.5-1.1,2.5-2.5s-1.1-2.5-2.5-2.5S494.4,221,494.4,222.4z"/>
			<path class="st2" d="M530,275.8c3.6,0,6.5-2.9,6.5-6.5c0-0.2,0-0.3,0-0.5c0.4,0.4,1,0.6,1.6,0.6c1.4,0,2.5-1.1,2.5-2.5
				s-1.1-2.5-2.5-2.5c-1.1,0-2.1,0.8-2.4,1.8c-1.1-2-3.2-3.4-5.7-3.4c-3.6,0-6.5,2.9-6.5,6.5S526.4,275.8,530,275.8z"/>
			<path class="st2" d="M519.7,274.6c0,1.4,1.1,2.5,2.5,2.5s2.5-1.1,2.5-2.5s-1.1-2.5-2.5-2.5S519.7,273.2,519.7,274.6z"/>
			<path class="st2" d="M521,267c1.4,0,2.5-1.1,2.5-2.5s-1.1-2.5-2.5-2.5s-2.5,1.1-2.5,2.5S519.6,267,521,267z"/>
			<path class="st2" d="M529.2,262.5c1.4,0,2.5-1.1,2.5-2.5s-1.1-2.5-2.5-2.5s-2.5,1.1-2.5,2.5S527.8,262.5,529.2,262.5z"/>
			<path class="st2" d="M540.5,258.4c-1.4,0-2.5,1.1-2.5,2.5s1.1,2.5,2.5,2.5s2.5-1.1,2.5-2.5S541.9,258.4,540.5,258.4z"/>
			<path class="st2" d="M534,275.8c0,1.4,1.1,2.5,2.5,2.5s2.5-1.1,2.5-2.5s-1.1-2.5-2.5-2.5S534,274.4,534,275.8z"/>
			<path class="st2" d="M521.4,322.6c-1.4,0-2.5,1.1-2.5,2.5s1.1,2.5,2.5,2.5s2.5-1.1,2.5-2.5S522.7,322.6,521.4,322.6z"/>
			<path class="st2" d="M522.7,315c0-1.4-1.1-2.5-2.5-2.5s-2.5,1.1-2.5,2.5s1.1,2.5,2.5,2.5S522.7,316.4,522.7,315z"/>
			<path class="st2" d="M525.9,310.6c0,1.4,1.1,2.5,2.5,2.5s2.5-1.1,2.5-2.5s-1.1-2.5-2.5-2.5S525.9,309.2,525.9,310.6z"/>
			<path class="st2" d="M537.2,315c-1.1,0-2.1,0.8-2.4,1.8c-1.1-2-3.2-3.4-5.7-3.4c-3.6,0-6.5,2.9-6.5,6.5s2.9,6.5,6.5,6.5
				s6.5-2.9,6.5-6.5c0-0.2,0-0.4,0-0.5c0.4,0.4,1,0.6,1.6,0.6c1.4,0,2.5-1.1,2.5-2.5S538.6,315,537.2,315z"/>
			<path class="st2" d="M539.7,308.9c-1.4,0-2.5,1.1-2.5,2.5s1.1,2.5,2.5,2.5s2.5-1.1,2.5-2.5S541.1,308.9,539.7,308.9z"/>
			<path class="st2" d="M535.7,323.9c-1.4,0-2.5,1.1-2.5,2.5s1.1,2.5,2.5,2.5s2.5-1.1,2.5-2.5S537,323.9,535.7,323.9z"/>
			<path class="st2" d="M494.8,367.5c-1.4,0-2.5,1.1-2.5,2.5s1.1,2.5,2.5,2.5s2.5-1.1,2.5-2.5S496.1,367.5,494.8,367.5z"/>
			<path class="st2" d="M496.1,359.8c0-1.4-1.1-2.5-2.5-2.5s-2.5,1.1-2.5,2.5s1.1,2.5,2.5,2.5S496.1,361.2,496.1,359.8z"/>
			<path class="st2" d="M499.3,355.4c0,1.4,1.1,2.5,2.5,2.5s2.5-1.1,2.5-2.5s-1.1-2.5-2.5-2.5S499.3,354,499.3,355.4z"/>
			<path class="st2" d="M510.7,359.9c-1.1,0-2.1,0.8-2.4,1.8c-1.1-2-3.2-3.4-5.7-3.4c-3.6,0-6.5,2.9-6.5,6.5s2.9,6.5,6.5,6.5
				s6.5-2.9,6.5-6.5c0-0.2,0-0.4,0-0.5c0.4,0.4,1,0.6,1.6,0.6c1.4,0,2.5-1.1,2.5-2.5S512,359.9,510.7,359.9z"/>
			<path class="st2" d="M513.1,353.7c-1.4,0-2.5,1.1-2.5,2.5s1.1,2.5,2.5,2.5s2.5-1.1,2.5-2.5S514.5,353.7,513.1,353.7z"/>
			<path class="st2" d="M509.1,368.7c-1.4,0-2.5,1.1-2.5,2.5s1.1,2.5,2.5,2.5s2.5-1.1,2.5-2.5S510.4,368.7,509.1,368.7z"/>
			<path class="st2" d="M440.2,415.3c-1.4,0-2.5,1.1-2.5,2.5s1.1,2.5,2.5,2.5s2.5-1.1,2.5-2.5S441.6,415.3,440.2,415.3z"/>
			<path class="st2" d="M441.5,407.7c0-1.4-1.1-2.5-2.5-2.5s-2.5,1.1-2.5,2.5s1.1,2.5,2.5,2.5S441.5,409,441.5,407.7z"/>
			<path class="st2" d="M447.2,405.7c1.4,0,2.5-1.1,2.5-2.5s-1.1-2.5-2.5-2.5s-2.5,1.1-2.5,2.5S445.9,405.7,447.2,405.7z"/>
			<path class="st2" d="M456.1,407.7c-1.1,0-2.1,0.8-2.4,1.8c-1.1-2-3.2-3.4-5.7-3.4c-3.6,0-6.5,2.9-6.5,6.5s2.9,6.5,6.5,6.5
				s6.5-2.9,6.5-6.5c0-0.2,0-0.4,0-0.5c0.4,0.4,1,0.6,1.6,0.6c1.4,0,2.5-1.1,2.5-2.5S457.4,407.7,456.1,407.7z"/>
			<path class="st2" d="M458.5,401.6c-1.4,0-2.5,1.1-2.5,2.5s1.1,2.5,2.5,2.5s2.5-1.1,2.5-2.5S459.9,401.6,458.5,401.6z"/>
			<path class="st2" d="M454.5,416.5c-1.4,0-2.5,1.1-2.5,2.5s1.1,2.5,2.5,2.5s2.5-1.1,2.5-2.5S455.8,416.5,454.5,416.5z"/>
			<path class="st2" d="M368.6,411.1c-1.4,0-2.5,1.1-2.5,2.5s1.1,2.5,2.5,2.5s2.5-1.1,2.5-2.5S370,411.1,368.6,411.1z"/>
			<path class="st2" d="M369.9,403.5c0-1.4-1.1-2.5-2.5-2.5s-2.5,1.1-2.5,2.5s1.1,2.5,2.5,2.5S369.9,404.8,369.9,403.5z"/>
			<path class="st2" d="M375.6,401.5c1.4,0,2.5-1.1,2.5-2.5s-1.1-2.5-2.5-2.5s-2.5,1.1-2.5,2.5S374.3,401.5,375.6,401.5z"/>
			<path class="st2" d="M384.5,403.5c-1.1,0-2.1,0.8-2.4,1.8c-1.1-2-3.2-3.4-5.7-3.4c-3.6,0-6.5,2.9-6.5,6.5s2.9,6.5,6.5,6.5
				s6.5-2.9,6.5-6.5c0-0.2,0-0.4,0-0.5c0.4,0.4,1,0.6,1.6,0.6c1.4,0,2.5-1.1,2.5-2.5S385.8,403.5,384.5,403.5z"/>
			<path class="st2" d="M386.9,397.3c-1.4,0-2.5,1.1-2.5,2.5s1.1,2.5,2.5,2.5s2.5-1.1,2.5-2.5S388.3,397.3,386.9,397.3z"/>
			<path class="st2" d="M382.9,412.3c-1.4,0-2.5,1.1-2.5,2.5s1.1,2.5,2.5,2.5s2.5-1.1,2.5-2.5S384.2,412.3,382.9,412.3z"/>
			<path class="st2" d="M329.3,355.2c-1.4,0-2.5,1.1-2.5,2.5s1.1,2.5,2.5,2.5s2.5-1.1,2.5-2.5S330.6,355.2,329.3,355.2z"/>
			<path class="st2" d="M330.6,347.5c0-1.4-1.1-2.5-2.5-2.5s-2.5,1.1-2.5,2.5s1.1,2.5,2.5,2.5S330.6,348.9,330.6,347.5z"/>
			<path class="st2" d="M336.3,345.6c1.4,0,2.5-1.1,2.5-2.5s-1.1-2.5-2.5-2.5s-2.5,1.1-2.5,2.5S334.9,345.6,336.3,345.6z"/>
			<path class="st2" d="M345.1,347.6c-1.1,0-2.1,0.8-2.4,1.8c-1.1-2-3.2-3.4-5.7-3.4c-3.6,0-6.5,2.9-6.5,6.5s2.9,6.5,6.5,6.5
				s6.5-2.9,6.5-6.5c0-0.2,0-0.4,0-0.5c0.4,0.4,1,0.6,1.6,0.6c1.4,0,2.5-1.1,2.5-2.5S346.5,347.6,345.1,347.6z"/>
			<path class="st2" d="M347.6,341.5c-1.4,0-2.5,1.1-2.5,2.5s1.1,2.5,2.5,2.5s2.5-1.1,2.5-2.5S349,341.5,347.6,341.5z"/>
			<path class="st2" d="M343.5,356.4c-1.4,0-2.5,1.1-2.5,2.5s1.1,2.5,2.5,2.5s2.5-1.1,2.5-2.5S344.9,356.4,343.5,356.4z"/>
			<path class="st2" d="M301.2,267.5c-1.4,0-2.5,1.1-2.5,2.5s1.1,2.5,2.5,2.5s2.5-1.1,2.5-2.5S302.6,267.5,301.2,267.5z"/>
			<path class="st2" d="M302.5,259.9c0-1.4-1.1-2.5-2.5-2.5s-2.5,1.1-2.5,2.5s1.1,2.5,2.5,2.5S302.5,261.2,302.5,259.9z"/>
			<path class="st2" d="M308.3,257.9c1.4,0,2.5-1.1,2.5-2.5s-1.1-2.5-2.5-2.5s-2.5,1.1-2.5,2.5S306.9,257.9,308.3,257.9z"/>
			<path class="st2" d="M317.1,259.9c-1.1,0-2.1,0.8-2.4,1.8c-1.1-2-3.2-3.4-5.7-3.4c-3.6,0-6.5,2.9-6.5,6.5s2.9,6.5,6.5,6.5
				s6.5-2.9,6.5-6.5c0-0.2,0-0.4,0-0.5c0.4,0.4,1,0.6,1.6,0.6c1.4,0,2.5-1.1,2.5-2.5S318.5,259.9,317.1,259.9z"/>
			<path class="st2" d="M319.6,253.8c-1.4,0-2.5,1.1-2.5,2.5s1.1,2.5,2.5,2.5s2.5-1.1,2.5-2.5S320.9,253.8,319.6,253.8z"/>
			<path class="st2" d="M315.5,268.7c-1.4,0-2.5,1.1-2.5,2.5s1.1,2.5,2.5,2.5s2.5-1.1,2.5-2.5S316.9,268.7,315.5,268.7z"/>
			<path class="st2" d="M326,231.5c3.6,0,6.5-2.9,6.5-6.5c0-0.2,0-0.4,0-0.5c0.4,0.4,1,0.6,1.6,0.6c1.4,0,2.5-1.1,2.5-2.5
				s-1.1-2.5-2.5-2.5c-1.1,0-2.1,0.8-2.4,1.8c-1.1-2-3.2-3.4-5.7-3.4c-3.6,0-6.5,2.9-6.5,6.5C319.5,228.6,322.4,231.5,326,231.5z"/>
			<path class="st2" d="M315.7,230.3c0,1.4,1.1,2.5,2.5,2.5s2.5-1.1,2.5-2.5c0-1.4-1.1-2.5-2.5-2.5S315.7,228.9,315.7,230.3z"/>
			<path class="st2" d="M317,222.7c1.4,0,2.5-1.1,2.5-2.5s-1.1-2.5-2.5-2.5s-2.5,1.1-2.5,2.5S315.7,222.7,317,222.7z"/>
			<path class="st2" d="M325.2,218.2c1.4,0,2.5-1.1,2.5-2.5s-1.1-2.5-2.5-2.5s-2.5,1.1-2.5,2.5S323.9,218.2,325.2,218.2z"/>
			<path class="st2" d="M336.5,219c1.4,0,2.5-1.1,2.5-2.5c0-1.4-1.1-2.5-2.5-2.5s-2.5,1.1-2.5,2.5C334.1,217.9,335.2,219,336.5,219z
				"/>
			<path class="st2" d="M332.5,229c-1.4,0-2.5,1.1-2.5,2.5s1.1,2.5,2.5,2.5s2.5-1.1,2.5-2.5S333.8,229,332.5,229z"/>
			<path class="st2" d="M371.8,194.8c-1.4,0-2.5,1.1-2.5,2.5c0,1.4,1.1,2.5,2.5,2.5s2.5-1.1,2.5-2.5
				C374.3,195.9,373.2,194.8,371.8,194.8z"/>
			<path class="st2" d="M370.6,189.6c1.4,0,2.5-1.1,2.5-2.5s-1.1-2.5-2.5-2.5s-2.5,1.1-2.5,2.5S369.3,189.6,370.6,189.6z"/>
			<path class="st2" d="M378.8,185.2c1.4,0,2.5-1.1,2.5-2.5s-1.1-2.5-2.5-2.5s-2.5,1.1-2.5,2.5S377.5,185.2,378.8,185.2z"/>
			<path class="st2" d="M387.7,187.1c-1.1,0-2.1,0.8-2.4,1.8c-1.1-2-3.2-3.4-5.7-3.4c-3.6,0-6.5,2.9-6.5,6.5c0,3.6,2.9,6.5,6.5,6.5
				s6.5-2.9,6.5-6.5c0-0.2,0-0.4,0-0.5c0.4,0.4,1,0.6,1.6,0.6c1.4,0,2.5-1.1,2.5-2.5S389,187.1,387.7,187.1z"/>
			<path class="st2" d="M390.2,181c-1.4,0-2.5,1.1-2.5,2.5s1.1,2.5,2.5,2.5s2.5-1.1,2.5-2.5S391.5,181,390.2,181z"/>
			<path class="st2" d="M388.5,198.5c0-1.4-1.1-2.5-2.5-2.5s-2.5,1.1-2.5,2.5s1.1,2.5,2.5,2.5S388.5,199.8,388.5,198.5z"/>
		</g>
	</g>
</g>
<g id="Calque_8">
	<g>
		<circle class="st0" cx="420.9" cy="297.6" r="70.2"/>
		<g>
			<path class="st3" d="M386.4,262.1c0,1.4,1.1,2.5,2.5,2.5s2.5-1.1,2.5-2.5s-1.1-2.5-2.5-2.5S386.4,260.7,386.4,262.1z"/>
			<path class="st3" d="M387.7,254.5c1.4,0,2.5-1.1,2.5-2.5c0-1.4-1.1-2.5-2.5-2.5s-2.5,1.1-2.5,2.5
				C385.2,253.3,386.4,254.5,387.7,254.5z"/>
			<path class="st3" d="M395.9,250c1.4,0,2.5-1.1,2.5-2.5c0-1.4-1.1-2.5-2.5-2.5s-2.5,1.1-2.5,2.5C393.4,248.9,394.5,250,395.9,250z
				"/>
			<path class="st3" d="M404.8,252c-1.1,0-2.1,0.8-2.4,1.8c-1.1-2-3.2-3.4-5.7-3.4c-3.6,0-6.5,2.9-6.5,6.5s2.9,6.5,6.5,6.5
				s6.5-2.9,6.5-6.5c0-0.2,0-0.3,0-0.5c0.4,0.4,1,0.6,1.6,0.6c1.4,0,2.5-1.1,2.5-2.5S406.1,252,404.8,252z"/>
			<path class="st3" d="M407.2,245.9c-1.4,0-2.5,1.1-2.5,2.5s1.1,2.5,2.5,2.5s2.5-1.1,2.5-2.5S408.6,245.9,407.2,245.9z"/>
			<path class="st3" d="M403.2,260.8c-1.4,0-2.5,1.1-2.5,2.5s1.1,2.5,2.5,2.5s2.5-1.1,2.5-2.5S404.5,260.8,403.2,260.8z"/>
			<path class="st3" d="M372.6,328c-1.4,0-2.5,1.1-2.5,2.5s1.1,2.5,2.5,2.5s2.5-1.1,2.5-2.5S374,328,372.6,328z"/>
			<path class="st3" d="M373.9,320.4c0-1.4-1.1-2.5-2.5-2.5s-2.5,1.1-2.5,2.5s1.1,2.5,2.5,2.5S373.9,321.8,373.9,320.4z"/>
			<path class="st3" d="M379.7,318.4c1.4,0,2.5-1.1,2.5-2.5s-1.1-2.5-2.5-2.5s-2.5,1.1-2.5,2.5S378.3,318.4,379.7,318.4z"/>
			<path class="st3" d="M388.5,320.4c-1.1,0-2.1,0.8-2.4,1.8c-1.1-2-3.2-3.4-5.7-3.4c-3.6,0-6.5,2.9-6.5,6.5s2.9,6.5,6.5,6.5
				s6.5-2.9,6.5-6.5c0-0.2,0-0.4,0-0.5c0.4,0.4,1,0.6,1.6,0.6c1.4,0,2.5-1.1,2.5-2.5S389.9,320.4,388.5,320.4z"/>
			<path class="st3" d="M391,314.3c-1.4,0-2.5,1.1-2.5,2.5s1.1,2.5,2.5,2.5s2.5-1.1,2.5-2.5S392.3,314.3,391,314.3z"/>
			<path class="st3" d="M386.9,329.2c-1.4,0-2.5,1.1-2.5,2.5s1.1,2.5,2.5,2.5s2.5-1.1,2.5-2.5S388.3,329.2,386.9,329.2z"/>
			<path class="st3" d="M453.7,332.2c-1.4,0-2.5,1.1-2.5,2.5s1.1,2.5,2.5,2.5s2.5-1.1,2.5-2.5S455.1,332.2,453.7,332.2z"/>
			<path class="st3" d="M455,324.6c0-1.4-1.1-2.5-2.5-2.5s-2.5,1.1-2.5,2.5s1.1,2.5,2.5,2.5S455,325.9,455,324.6z"/>
			<path class="st3" d="M458.3,320.2c0,1.4,1.1,2.5,2.5,2.5s2.5-1.1,2.5-2.5s-1.1-2.5-2.5-2.5S458.3,318.8,458.3,320.2z"/>
			<path class="st3" d="M469.6,324.6c-1.1,0-2.1,0.8-2.4,1.8c-1.1-2-3.2-3.4-5.7-3.4c-3.6,0-6.5,2.9-6.5,6.5s2.9,6.5,6.5,6.5
				s6.5-2.9,6.5-6.5c0-0.2,0-0.4,0-0.5c0.4,0.4,1,0.6,1.6,0.6c1.4,0,2.5-1.1,2.5-2.5S471,324.6,469.6,324.6z"/>
			<path class="st3" d="M472.1,318.5c-1.4,0-2.5,1.1-2.5,2.5s1.1,2.5,2.5,2.5s2.5-1.1,2.5-2.5S473.5,318.5,472.1,318.5z"/>
			<path class="st3" d="M468,333.4c-1.4,0-2.5,1.1-2.5,2.5s1.1,2.5,2.5,2.5s2.5-1.1,2.5-2.5S469.4,333.4,468,333.4z"/>
			<path class="st3" d="M460.7,280.4c3.6,0,6.5-2.9,6.5-6.5c0-0.2,0-0.4,0-0.5c0.4,0.4,1,0.6,1.6,0.6c1.4,0,2.5-1.1,2.5-2.5
				s-1.1-2.5-2.5-2.5c-1.1,0-2.1,0.8-2.4,1.8c-1.1-2-3.2-3.4-5.7-3.4c-3.6,0-6.5,2.9-6.5,6.5S457.2,280.4,460.7,280.4z"/>
			<path class="st3" d="M450.5,279.2c0,1.4,1.1,2.5,2.5,2.5s2.5-1.1,2.5-2.5s-1.1-2.5-2.5-2.5S450.5,277.8,450.5,279.2z"/>
			<path class="st3" d="M454.2,269.1c0-1.4-1.1-2.5-2.5-2.5s-2.5,1.1-2.5,2.5s1.1,2.5,2.5,2.5S454.2,270.5,454.2,269.1z"/>
			<path class="st3" d="M460,267.1c1.4,0,2.5-1.1,2.5-2.5s-1.1-2.5-2.5-2.5s-2.5,1.1-2.5,2.5S458.6,267.1,460,267.1z"/>
			<path class="st3" d="M471.3,267.9c1.4,0,2.5-1.1,2.5-2.5s-1.1-2.5-2.5-2.5s-2.5,1.1-2.5,2.5S469.9,267.9,471.3,267.9z"/>
			<path class="st3" d="M464.8,280.4c0,1.4,1.1,2.5,2.5,2.5s2.5-1.1,2.5-2.5s-1.1-2.5-2.5-2.5S464.8,279.1,464.8,280.4z"/>
		</g>
	</g>
</g>
<g id="Calque_7">
</g>
<g id="Calque_6">
	<path class="st4" d="M634.4,297.1H442c-0.3-11.3-9.3-20.3-20.6-20.6V84.2h-1v192.4c-11.3,0.3-20.3,9.3-20.6,20.6H207.5v1h192.4
		c0.3,11.3,9.3,20.3,20.6,20.6v192.4h1V318.7c11.3-0.3,20.3-9.3,20.6-20.6h192.4V297.1z"/>
</g>
<g id="Calque_5">
	<path class="st5" d="M420.9,58.4c-132.2,0-239.3,107.1-239.3,239.3s107.1,239.3,239.3,239.3s239.3-107.1,239.3-239.3
		S553.1,58.4,420.9,58.4z M420.9,526.2c-126.2,0-228.6-102.3-228.6-228.6S294.7,69.1,420.9,69.1s228.6,102.3,228.6,228.6
		S547.2,526.2,420.9,526.2z"/>
</g>
<g id="Calque_4">
	<path class="st4" d="M420.9,212.2c-47.2,0-85.5,38.3-85.5,85.5s38.3,85.5,85.5,85.5c47.2,0,85.5-38.3,85.5-85.5
		S468.1,212.2,420.9,212.2z M476.4,235.3l3.3,12.2l-12.2-3.3L476.4,235.3z M415.8,214.5l11.2,6.2l-11.2,6.2V214.5z M370.9,239
		l-3.3,12.1l-8.8-8.8L370.9,239z M337.9,302.5l6.2-10.9l6.2,10.9H337.9z M366,360l-3.5-12.3l12.3,3.5L366,360z M425.9,380.8
		l-10.9-6.2l10.9-6.2V380.8z M471.1,356.3l3.5-12.3l8.8,8.8L471.1,356.3z M420.9,367.8c-38.8,0-70.2-31.4-70.2-70.2
		s31.4-70.2,70.2-70.2s70.2,31.4,70.2,70.2S459.7,367.8,420.9,367.8z M491.7,292.5h12.5l-6.2,11.2L491.7,292.5z"/>
</g>
<g id="Calque_3">
	<path class="st4" d="M420.9,140.5c-86.8,0-157.1,70.4-157.1,157.1s70.4,157.1,157.1,157.1s157.1-70.4,157.1-157.1
		S507.7,140.5,420.9,140.5z M534.3,190l-8.8,8.8l-3.5-12.3L534.3,190z M425.2,141.7v12.5L414,148L425.2,141.7z M313.8,184.8l8.8,8.8
		l-12.3,3.5L313.8,184.8z M271.7,305.1l-6.2-11.2H278L271.7,305.1z M308.5,405.2l8.8-8.8l3.5,12.3L308.5,405.2z M417.7,453.6v-12.5
		l11.2,6.2L417.7,453.6z M529,410.5l-8.8-8.8l12.3-3.5L529,410.5z M420.9,439.9c-78.6,0-142.2-63.7-142.2-142.2
		s63.7-142.2,142.2-142.2s142.2,63.7,142.2,142.2S499.5,439.9,420.9,439.9z M571.1,290.2l6.2,11.2h-12.5L571.1,290.2z"/>
</g>
<g id="Calque_2">
	<path class="st4" d="M420.9,69.1c-126.2,0-228.6,102.3-228.6,228.6s102.3,228.6,228.6,228.6s228.6-102.3,228.6-228.6
		S547.2,69.1,420.9,69.1z M577.6,133.5l3.5,12.3l-12.3-3.5L577.6,133.5z M415.8,70.3l11.2,6.2l-11.2,6.2V70.3z M269.1,136.6
		l-3.5,12.3l-8.8-8.8L269.1,136.6z M193.7,301.9l6.2-11.2l6.2,11.2H193.7z M263.4,460.9l-3.5-12.3l12.3,3.5L263.4,460.9z M425.2,524
		l-11.2-6.2l11.2-6.2V524z M571.9,457.8l3.5-12.3l8.8,8.8L571.9,457.8z M420.9,511.2c-118,0-213.6-95.6-213.6-213.6
		S303,84.1,420.9,84.1s213.6,95.6,213.6,213.6S538.9,511.2,420.9,511.2z M634.9,292.5h12.5l-6.2,11.2L634.9,292.5z"/>
</g>
</svg>
