<?xml version="1.0" encoding="utf-8"?>
<!-- Generator: Adobe Illustrator 27.0.1, SVG Export Plug-In . SVG Version: 6.00 Build 0)  -->
<svg version="1.1" id="Calque_1" xmlns="http://www.w3.org/2000/svg" xmlns:xlink="http://www.w3.org/1999/xlink" x="0px" y="0px"
	 viewBox="0 0 841.89 595.28" style="enable-background:new 0 0 841.89 595.28;" xml:space="preserve">
<style type="text/css">
	.st0{fill:#CE0909;}
	.st1{fill:#1D1D1B;}
	.st2{fill:#FFFFFF;stroke:#1D1D1B;stroke-miterlimit:10;}
	.st3{fill:none;stroke:#1D1D1B;stroke-miterlimit:10;}
	.st4{fill:#D65C5C;}
	.st5{fill:#FF00F0;}
	.st6{fill:#AFFF45;}
</style>
<circle class="st0" cx="420.94" cy="297.64" r="239.29"/>
<circle class="st1" cx="420.94" cy="297.64" r="228.57"/>
<circle class="st2" cx="420.94" cy="297.64" r="213.58"/>
<circle class="st1" cx="420.94" cy="297.64" r="157.14"/>
<circle class="st2" cx="420.94" cy="297.64" r="142.25"/>
<circle class="st1" cx="420.94" cy="297.64" r="85.45"/>
<circle class="st2" cx="420.94" cy="297.64" r="70.2"/>
<circle class="st1" cx="420.94" cy="297.64" r="21.12"/>
<line class="st3" x1="420.94" y1="84.16" x2="420.94" y2="511.12"/>
<line class="st3" x1="207.46" y1="297.64" x2="634.42" y2="297.64"/>
<polygon class="st2" points="427.02,220.74 415.83,214.5 415.83,226.98 "/>
<polygon class="st2" points="427.02,76.58 415.83,70.35 415.83,82.82 "/>
<polygon class="st2" points="413.96,147.96 425.16,154.19 425.16,141.72 "/>
<polygon class="st2" points="413.96,517.79 425.16,524.03 425.16,511.56 "/>
<polygon class="st2" points="428.89,447.32 417.7,441.08 417.7,453.56 "/>
<polygon class="st2" points="414.96,374.54 425.9,380.78 425.9,368.3 "/>
<polygon class="st2" points="497.89,303.67 504.13,292.47 491.66,292.47 "/>
<polygon class="st2" points="344.09,291.61 337.86,302.55 350.33,302.55 "/>
<polygon class="st2" points="471.11,356.28 483.43,352.77 474.61,343.95 "/>
<polygon class="st2" points="370.88,239 358.73,242.32 367.55,251.14 "/>
<polygon class="st2" points="362.44,347.66 365.95,359.99 374.77,351.17 "/>
<polygon class="st2" points="479.72,247.44 476.4,235.29 467.57,244.11 "/>
<polygon class="st2" points="310.31,197.07 322.63,193.57 313.81,184.75 "/>
<polygon class="st2" points="532.54,398.2 520.22,401.71 529.04,410.53 "/>
<polygon class="st2" points="271.74,305.1 277.98,293.91 265.51,293.91 "/>
<polygon class="st2" points="571.11,290.18 564.87,301.37 577.35,301.37 "/>
<polygon class="st2" points="320.86,408.76 317.36,396.43 308.54,405.25 "/>
<polygon class="st2" points="521.99,186.52 525.49,198.84 534.32,190.02 "/>
<polygon class="st2" points="581.1,145.81 577.6,133.49 568.78,142.31 "/>
<polygon class="st2" points="259.89,448.56 263.39,460.89 272.21,452.07 "/>
<polygon class="st2" points="641.1,303.72 647.34,292.53 634.86,292.53 "/>
<polygon class="st2" points="199.89,290.66 193.65,301.85 206.13,301.85 "/>
<polygon class="st2" points="571.87,457.8 584.19,454.29 575.37,445.47 "/>
<polygon class="st2" points="269.12,136.58 256.79,140.09 265.62,148.91 "/>
<g>
	<circle class="st4" cx="396.67" cy="256.82" r="6.48"/>
	<circle class="st4" cx="388.88" cy="262.09" r="2.47"/>
	<circle class="st4" cx="387.72" cy="251.98" r="2.47"/>
	<circle class="st4" cx="395.91" cy="247.55" r="2.47"/>
	<circle class="st4" cx="404.75" cy="254.46" r="2.47"/>
	<circle class="st4" cx="407.23" cy="248.35" r="2.47"/>
	<circle class="st4" cx="403.16" cy="263.31" r="2.47"/>
</g>
<g>
	<circle class="st4" cx="380.41" cy="325.24" r="6.48"/>
	<circle class="st4" cx="372.62" cy="330.5" r="2.47"/>
	<circle class="st4" cx="371.45" cy="320.4" r="2.47"/>
	<circle class="st4" cx="379.65" cy="315.96" r="2.47"/>
	<circle class="st4" cx="388.49" cy="322.87" r="2.47"/>
	<circle class="st4" cx="390.97" cy="316.76" r="2.47"/>
	<circle class="st4" cx="386.9" cy="331.72" r="2.47"/>
</g>
<g>
	<circle class="st4" cx="461.54" cy="329.43" r="6.48"/>
	<circle class="st4" cx="453.74" cy="334.69" r="2.47"/>
	<circle class="st4" cx="452.58" cy="324.58" r="2.47"/>
	<circle class="st4" cx="460.78" cy="320.15" r="2.47"/>
	<circle class="st4" cx="469.62" cy="327.06" r="2.47"/>
	<circle class="st4" cx="472.09" cy="320.95" r="2.47"/>
	<circle class="st4" cx="468.02" cy="335.91" r="2.47"/>
</g>
<g>
	<circle class="st4" cx="460.74" cy="273.93" r="6.48"/>
	<circle class="st4" cx="452.95" cy="279.2" r="2.47"/>
	<circle class="st4" cx="451.78" cy="269.09" r="2.47"/>
	<circle class="st4" cx="459.98" cy="264.66" r="2.47"/>
	<circle class="st4" cx="468.82" cy="271.56" r="2.47"/>
	<circle class="st4" cx="471.29" cy="265.46" r="2.47"/>
	<circle class="st4" cx="467.22" cy="280.42" r="2.47"/>
</g>
<g>
	<circle class="st5" cx="438.24" cy="182.84" r="6.48"/>
	<circle class="st5" cx="430.45" cy="188.1" r="2.47"/>
	<circle class="st5" cx="429.29" cy="178" r="2.47"/>
	<circle class="st5" cx="437.48" cy="173.56" r="2.47"/>
	<circle class="st5" cx="446.32" cy="180.47" r="2.47"/>
	<circle class="st5" cx="448.8" cy="174.36" r="2.47"/>
	<circle class="st5" cx="444.73" cy="189.32" r="2.47"/>
</g>
<g>
	<circle class="st5" cx="490.35" cy="215.9" r="6.48"/>
	<circle class="st5" cx="482.55" cy="221.16" r="2.47"/>
	<circle class="st5" cx="481.39" cy="211.05" r="2.47"/>
	<circle class="st5" cx="489.59" cy="206.62" r="2.47"/>
	<circle class="st5" cx="498.43" cy="213.53" r="2.47"/>
	<circle class="st5" cx="500.9" cy="207.42" r="2.47"/>
	<circle class="st5" cx="496.83" cy="222.38" r="2.47"/>
</g>
<g>
	<circle class="st5" cx="529.97" cy="269.32" r="6.48"/>
	<circle class="st5" cx="522.18" cy="274.59" r="2.47"/>
	<circle class="st5" cx="521.01" cy="264.48" r="2.47"/>
	<circle class="st5" cx="529.21" cy="260.05" r="2.47"/>
	<circle class="st5" cx="538.05" cy="266.96" r="2.47"/>
	<circle class="st5" cx="540.52" cy="260.85" r="2.47"/>
	<circle class="st5" cx="536.45" cy="275.81" r="2.47"/>
</g>
<g>
	<circle class="st5" cx="529.17" cy="319.83" r="6.48"/>
	<circle class="st5" cx="521.38" cy="325.1" r="2.47"/>
	<circle class="st5" cx="520.21" cy="314.99" r="2.47"/>
	<circle class="st5" cx="528.41" cy="310.56" r="2.47"/>
	<circle class="st5" cx="537.25" cy="317.46" r="2.47"/>
	<circle class="st5" cx="539.73" cy="311.36" r="2.47"/>
	<circle class="st5" cx="535.66" cy="326.32" r="2.47"/>
</g>
<g>
	<circle class="st5" cx="502.58" cy="364.69" r="6.48"/>
	<circle class="st5" cx="494.78" cy="369.95" r="2.47"/>
	<circle class="st5" cx="493.62" cy="359.84" r="2.47"/>
	<circle class="st5" cx="501.81" cy="355.41" r="2.47"/>
	<circle class="st5" cx="510.66" cy="362.32" r="2.47"/>
	<circle class="st5" cx="513.13" cy="356.21" r="2.47"/>
	<circle class="st5" cx="509.06" cy="371.17" r="2.47"/>
</g>
<g>
	<circle class="st5" cx="448" cy="412.52" r="6.48"/>
	<circle class="st5" cx="440.21" cy="417.79" r="2.47"/>
	<circle class="st5" cx="439.04" cy="407.68" r="2.47"/>
	<circle class="st5" cx="447.24" cy="403.25" r="2.47"/>
	<circle class="st5" cx="456.08" cy="410.15" r="2.47"/>
	<circle class="st5" cx="458.55" cy="404.05" r="2.47"/>
	<circle class="st5" cx="454.48" cy="419.01" r="2.47"/>
</g>
<g>
	<circle class="st5" cx="376.38" cy="408.29" r="6.48"/>
	<circle class="st5" cx="368.59" cy="413.56" r="2.47"/>
	<circle class="st5" cx="367.42" cy="403.45" r="2.47"/>
	<circle class="st5" cx="375.62" cy="399.02" r="2.47"/>
	<circle class="st5" cx="384.46" cy="405.92" r="2.47"/>
	<circle class="st5" cx="386.93" cy="399.81" r="2.47"/>
	<circle class="st5" cx="382.86" cy="414.77" r="2.47"/>
</g>
<g>
	<circle class="st5" cx="337.06" cy="352.4" r="6.48"/>
	<circle class="st5" cx="329.26" cy="357.66" r="2.47"/>
	<circle class="st5" cx="328.1" cy="347.55" r="2.47"/>
	<circle class="st5" cx="336.3" cy="343.12" r="2.47"/>
	<circle class="st5" cx="345.14" cy="350.03" r="2.47"/>
	<circle class="st5" cx="347.61" cy="343.92" r="2.47"/>
	<circle class="st5" cx="343.54" cy="358.88" r="2.47"/>
</g>
<g>
	<circle class="st5" cx="309.03" cy="264.7" r="6.48"/>
	<circle class="st5" cx="301.23" cy="269.97" r="2.47"/>
	<circle class="st5" cx="300.07" cy="259.86" r="2.47"/>
	<circle class="st5" cx="308.26" cy="255.43" r="2.47"/>
	<circle class="st5" cx="317.11" cy="262.33" r="2.47"/>
	<circle class="st5" cx="319.58" cy="256.23" r="2.47"/>
	<circle class="st5" cx="315.51" cy="271.19" r="2.47"/>
</g>
<g>
	<circle class="st5" cx="325.99" cy="225.03" r="6.48"/>
	<circle class="st5" cx="318.2" cy="230.29" r="2.47"/>
	<circle class="st5" cx="317.03" cy="220.19" r="2.47"/>
	<circle class="st5" cx="325.23" cy="215.75" r="2.47"/>
	<circle class="st5" cx="334.07" cy="222.66" r="2.47"/>
	<circle class="st5" cx="336.55" cy="216.55" r="2.47"/>
	<circle class="st5" cx="332.48" cy="231.51" r="2.47"/>
</g>
<g>
	<circle class="st5" cx="379.59" cy="191.97" r="6.48"/>
	<circle class="st5" cx="371.8" cy="197.24" r="2.47"/>
	<circle class="st5" cx="370.63" cy="187.13" r="2.47"/>
	<circle class="st5" cx="378.83" cy="182.7" r="2.47"/>
	<circle class="st5" cx="387.67" cy="189.6" r="2.47"/>
	<circle class="st5" cx="390.15" cy="183.5" r="2.47"/>
	<circle class="st5" cx="386.08" cy="198.46" r="2.47"/>
</g>
<g>
	<circle class="st6" cx="381.33" cy="121.2" r="6.48"/>
	<circle class="st6" cx="373.53" cy="126.46" r="2.47"/>
	<circle class="st6" cx="372.37" cy="116.36" r="2.47"/>
	<circle class="st6" cx="380.56" cy="111.92" r="2.47"/>
	<circle class="st6" cx="389.41" cy="118.83" r="2.47"/>
	<circle class="st6" cx="391.88" cy="112.72" r="2.47"/>
	<circle class="st6" cx="387.81" cy="127.68" r="2.47"/>
</g>
<g>
	<circle class="st6" cx="491.26" cy="134.55" r="6.48"/>
	<circle class="st6" cx="483.47" cy="139.81" r="2.47"/>
	<circle class="st6" cx="482.3" cy="129.71" r="2.47"/>
	<circle class="st6" cx="490.5" cy="125.27" r="2.47"/>
	<circle class="st6" cx="499.34" cy="132.18" r="2.47"/>
	<circle class="st6" cx="501.81" cy="126.07" r="2.47"/>
	<circle class="st6" cx="497.75" cy="141.03" r="2.47"/>
</g>
<g>
	<circle class="st6" cx="547.89" cy="162.93" r="6.48"/>
	<circle class="st6" cx="540.09" cy="168.2" r="2.47"/>
	<circle class="st6" cx="538.93" cy="158.09" r="2.47"/>
	<circle class="st6" cx="547.12" cy="153.66" r="2.47"/>
	<circle class="st6" cx="555.97" cy="160.56" r="2.47"/>
	<circle class="st6" cx="558.44" cy="154.46" r="2.47"/>
	<circle class="st6" cx="554.37" cy="169.42" r="2.47"/>
</g>
<g>
	<circle class="st6" cx="608.89" cy="261.01" r="6.48"/>
	<circle class="st6" cx="601.1" cy="266.28" r="2.47"/>
	<circle class="st6" cx="599.93" cy="256.17" r="2.47"/>
	<circle class="st6" cx="608.13" cy="251.74" r="2.47"/>
	<circle class="st6" cx="616.97" cy="258.64" r="2.47"/>
	<circle class="st6" cx="619.44" cy="252.53" r="2.47"/>
	<circle class="st6" cx="615.37" cy="267.5" r="2.47"/>
</g>
<g>
	<circle class="st6" cx="324.43" cy="133.05" r="6.48"/>
	<circle class="st6" cx="316.64" cy="138.32" r="2.47"/>
	<circle class="st6" cx="315.48" cy="128.21" r="2.47"/>
	<circle class="st6" cx="323.67" cy="123.78" r="2.47"/>
	<circle class="st6" cx="332.51" cy="130.68" r="2.47"/>
	<circle class="st6" cx="334.99" cy="124.57" r="2.47"/>
	<circle class="st6" cx="330.92" cy="139.53" r="2.47"/>
</g>
<g>
	<circle class="st6" cx="292.76" cy="186.88" r="6.48"/>
	<circle class="st6" cx="284.97" cy="192.15" r="2.47"/>
	<circle class="st6" cx="283.81" cy="182.04" r="2.47"/>
	<circle class="st6" cx="292" cy="177.61" r="2.47"/>
	<circle class="st6" cx="300.85" cy="184.51" r="2.47"/>
	<circle class="st6" cx="303.32" cy="178.41" r="2.47"/>
	<circle class="st6" cx="299.25" cy="193.37" r="2.47"/>
</g>
<g>
	<circle class="st6" cx="245.53" cy="212.45" r="6.48"/>
	<circle class="st6" cx="237.73" cy="217.71" r="2.47"/>
	<circle class="st6" cx="236.57" cy="207.61" r="2.47"/>
	<circle class="st6" cx="244.76" cy="203.17" r="2.47"/>
	<circle class="st6" cx="253.61" cy="210.08" r="2.47"/>
	<circle class="st6" cx="256.08" cy="203.97" r="2.47"/>
	<circle class="st6" cx="252.01" cy="218.93" r="2.47"/>
</g>
<g>
	<circle class="st6" cx="248.74" cy="274.73" r="6.48"/>
	<circle class="st6" cx="240.95" cy="280" r="2.47"/>
	<circle class="st6" cx="239.78" cy="269.89" r="2.47"/>
	<circle class="st6" cx="247.98" cy="265.46" r="2.47"/>
	<circle class="st6" cx="256.82" cy="272.36" r="2.47"/>
	<circle class="st6" cx="259.29" cy="266.25" r="2.47"/>
	<circle class="st6" cx="255.22" cy="281.22" r="2.47"/>
</g>
<g>
	<circle class="st6" cx="236.93" cy="325.24" r="6.48"/>
	<circle class="st6" cx="229.14" cy="330.5" r="2.47"/>
	<circle class="st6" cx="227.98" cy="320.4" r="2.47"/>
	<circle class="st6" cx="236.17" cy="315.96" r="2.47"/>
	<circle class="st6" cx="245.02" cy="322.87" r="2.47"/>
	<circle class="st6" cx="247.49" cy="316.76" r="2.47"/>
	<circle class="st6" cx="243.42" cy="331.72" r="2.47"/>
</g>
<g>
	<circle class="st6" cx="254.43" cy="378.23" r="6.48"/>
	<circle class="st6" cx="246.63" cy="383.49" r="2.47"/>
	<circle class="st6" cx="245.47" cy="373.38" r="2.47"/>
	<circle class="st6" cx="253.66" cy="368.95" r="2.47"/>
	<circle class="st6" cx="262.51" cy="375.86" r="2.47"/>
	<circle class="st6" cx="264.98" cy="369.75" r="2.47"/>
	<circle class="st6" cx="260.91" cy="384.71" r="2.47"/>
</g>
<g>
	<circle class="st6" cx="284.17" cy="411.18" r="6.48"/>
	<circle class="st6" cx="276.38" cy="416.45" r="2.47"/>
	<circle class="st6" cx="275.22" cy="406.34" r="2.47"/>
	<circle class="st6" cx="283.41" cy="401.91" r="2.47"/>
	<circle class="st6" cx="292.25" cy="408.81" r="2.47"/>
	<circle class="st6" cx="294.73" cy="402.71" r="2.47"/>
	<circle class="st6" cx="290.66" cy="417.67" r="2.47"/>
</g>
<g>
	<circle class="st6" cx="323.63" cy="465.02" r="6.48"/>
	<circle class="st6" cx="315.84" cy="470.28" r="2.47"/>
	<circle class="st6" cx="314.68" cy="460.17" r="2.47"/>
	<circle class="st6" cx="322.87" cy="455.74" r="2.47"/>
	<circle class="st6" cx="331.72" cy="462.65" r="2.47"/>
	<circle class="st6" cx="334.19" cy="456.54" r="2.47"/>
	<circle class="st6" cx="330.12" cy="471.5" r="2.47"/>
</g>
<g>
	<circle class="st6" cx="387.01" cy="477.1" r="6.48"/>
	<circle class="st6" cx="379.22" cy="482.36" r="2.47"/>
	<circle class="st6" cx="378.05" cy="472.26" r="2.47"/>
	<circle class="st6" cx="386.25" cy="467.82" r="2.47"/>
	<circle class="st6" cx="395.09" cy="474.73" r="2.47"/>
	<circle class="st6" cx="397.57" cy="468.62" r="2.47"/>
	<circle class="st6" cx="393.5" cy="483.58" r="2.47"/>
</g>
<g>
	<circle class="st6" cx="450.47" cy="478.49" r="6.48"/>
	<circle class="st6" cx="442.68" cy="483.76" r="2.47"/>
	<circle class="st6" cx="441.51" cy="473.65" r="2.47"/>
	<circle class="st6" cx="449.71" cy="469.22" r="2.47"/>
	<circle class="st6" cx="458.55" cy="476.13" r="2.47"/>
	<circle class="st6" cx="461.03" cy="470.02" r="2.47"/>
	<circle class="st6" cx="456.96" cy="484.98" r="2.47"/>
</g>
<g>
	<circle class="st6" cx="510.74" cy="453.92" r="6.48"/>
	<circle class="st6" cx="502.94" cy="459.18" r="2.47"/>
	<circle class="st6" cx="501.78" cy="449.07" r="2.47"/>
	<circle class="st6" cx="509.97" cy="444.64" r="2.47"/>
	<circle class="st6" cx="518.82" cy="451.55" r="2.47"/>
	<circle class="st6" cx="521.29" cy="445.44" r="2.47"/>
	<circle class="st6" cx="517.22" cy="460.4" r="2.47"/>
</g>
<g>
	<circle class="st6" cx="570.31" cy="418.64" r="6.48"/>
	<circle class="st6" cx="562.52" cy="423.91" r="2.47"/>
	<circle class="st6" cx="561.35" cy="413.8" r="2.47"/>
	<circle class="st6" cx="569.55" cy="409.37" r="2.47"/>
	<circle class="st6" cx="578.39" cy="416.27" r="2.47"/>
	<circle class="st6" cx="580.86" cy="410.17" r="2.47"/>
	<circle class="st6" cx="576.8" cy="425.13" r="2.47"/>
</g>
<g>
	<circle class="st6" cx="589.82" cy="371.15" r="6.48"/>
	<circle class="st6" cx="582.03" cy="376.41" r="2.47"/>
	<circle class="st6" cx="580.86" cy="366.3" r="2.47"/>
	<circle class="st6" cx="589.06" cy="361.87" r="2.47"/>
	<circle class="st6" cx="597.9" cy="368.78" r="2.47"/>
	<circle class="st6" cx="600.38" cy="362.67" r="2.47"/>
	<circle class="st6" cx="596.31" cy="377.63" r="2.47"/>
</g>
<g>
	<circle class="st6" cx="605.68" cy="310.28" r="6.48"/>
	<circle class="st6" cx="597.88" cy="315.54" r="2.47"/>
	<circle class="st6" cx="596.72" cy="305.44" r="2.47"/>
	<circle class="st6" cx="604.91" cy="301" r="2.47"/>
	<circle class="st6" cx="613.76" cy="307.91" r="2.47"/>
	<circle class="st6" cx="616.23" cy="301.8" r="2.47"/>
	<circle class="st6" cx="612.16" cy="316.76" r="2.47"/>
</g>
<g>
	<circle class="st6" cx="593.04" cy="205.37" r="6.48"/>
	<circle class="st6" cx="585.24" cy="210.63" r="2.47"/>
	<circle class="st6" cx="584.08" cy="200.53" r="2.47"/>
	<circle class="st6" cx="592.27" cy="196.09" r="2.47"/>
	<circle class="st6" cx="601.12" cy="203" r="2.47"/>
	<circle class="st6" cx="603.59" cy="196.89" r="2.47"/>
	<circle class="st6" cx="599.52" cy="211.85" r="2.47"/>
</g>
<g>
	<circle class="st6" cx="444.36" cy="117.75" r="6.48"/>
	<circle class="st6" cx="436.56" cy="123.02" r="2.47"/>
	<circle class="st6" cx="435.4" cy="112.91" r="2.47"/>
	<circle class="st6" cx="443.59" cy="108.48" r="2.47"/>
	<circle class="st6" cx="452.44" cy="115.38" r="2.47"/>
	<circle class="st6" cx="454.91" cy="109.27" r="2.47"/>
	<circle class="st6" cx="450.84" cy="124.24" r="2.47"/>
</g>
</svg>
